<?xml version="1.0" encoding="UTF-8"?><svg id="Layer_2" xmlns="http://www.w3.org/2000/svg" viewBox="0 0 1629.52 1629.38"><defs><style>.cls-1{fill:#010000;}.cls-2{fill:#ff3000;}</style></defs><g id="Layer_1-2"><g><path class="cls-2" d="M781.04,0h53.67c13.5,.23,26.95,1.15,40.42,2.05,30.2,2.02,60.15,6.01,89.91,11.52,59.29,10.99,116.63,28.38,171.99,52.28,229.92,99.24,401.48,297.61,465.78,538.84,14.05,52.69,22.97,106.25,25.58,160.79,.05,1.01-.48,2.36,1.13,2.79v79.91c-.52,2.79-.88,5.58-.92,8.43-.32,19.23-2.32,38.33-4.58,57.41-4.9,41.44-13,82.25-24.51,122.33-41.99,146.25-118.27,271.82-230.06,375.03-141.67,130.8-309.43,202.35-501.75,216.18-37.25,2.68-74.52,2.3-111.79-.55-30.37-2.32-60.53-6.06-90.48-11.6-71.07-13.13-139.38-34.95-204.14-66.96-188.52-93.17-323.04-237.08-403.04-431.57-23.16-56.31-38.68-114.84-48.18-174.99-5.83-36.89-9-74.01-9.86-111.31-1.05-45.35,2.09-90.48,8.64-135.36,9.57-65.59,26.75-129.15,52.27-190.32C126.9,347.2,231.48,221.5,375.04,128.87,497.02,50.15,631.01,7.76,776.13,.86c1.65-.08,3.46,.43,4.91-.86Zm648.06,567.59c.22-.89,.48-1.4,.45-1.89-.11-2.09-.25-4.18-.48-6.26-3.32-29.79-13.19-57.34-28.68-82.9-22.25-36.72-53.26-64.2-90.51-84.97-39.53-22.03-82.24-34.63-126.58-42.25-36.67-6.3-73.66-8.79-110.83-9.09-9.67-.08-9.83-.12-8.37-9.89,5.4-36.08,25.05-60.04,60.51-70.21,17.63-5.06,35.66-5.36,53.79-3.79,4.86,.42,9.7,1.03,14.55,1.56-1.57-1.3-3.3-1.98-5.07-2.5-11.86-3.54-23.89-6.37-36.01-8.81-52.95-10.68-106.55-15.33-160.45-16.82-34.46-.95-68.87,.15-103.24,2.89-36.09,2.89-71.84,7.95-107.11,16.15-29.9,6.95-59.08,16.13-86.97,29.07-35.83,16.63-67.92,38.24-92.43,69.88-.68,.88-1.5,2.01-2.46,2.28-7.5,2.1-14.97,4.61-22.92,3.98-3.83-.3-5.27-2.1-5.37-6-.08-3.09,.71-6.05,1.6-8.95,1.5-4.91,3.09-9.79,4.76-14.64,8.88-25.77,15.83-52.02,19.75-79.03,5.69-39.18,5.86-78.48,2.19-117.83-.53-5.63-.59-11.37-2.41-17.52-2.09,3.91-3.09,7.57-4.07,11.19-6.34,23.3-12.42,46.67-18.92,69.92-12.13,43.38-28.38,85.1-50.46,124.47-31.82,56.73-73.42,105.34-122.57,147.68-12.69,10.93-25.92,21.19-39.18,31.42-14.12,10.89-26.53,23.43-35.36,39.12-10.25,18.23-13.32,37.45-7.54,57.78,1.2,4.22,2.87,8.28,5.03,12.09,1.06,1.87,.94,3.16-1.08,4.13-1.03,.49-2,1.09-2.99,1.66-28,16.04-54.38,34.31-77.97,56.42-14.5,13.6-27.55,28.42-37.11,46-5.31,9.75-9.5,19.97-10.6,31.12-2.26,22.85,.33,45.17,8.14,66.81,2.53,7.01,6.12,13.51,10.88,19.3,9.11,11.1,20.75,16.91,35.23,16.97,9.1,.04,17.72-2.07,26.13-5.28,7.85-3,15.18-7.02,22.38-11.31,10.63-6.35,21.55-12.12,33.26-16.3,12.82-4.58,25.3-5.03,37.21,2.78,1.42,.93,3.05,1.54,4.63,2.2,4.67,1.94,9.44,1.65,14.99,.95-6.42-7.74-6.6-16.18-5.6-24.84,.2-1.7,.41-3.4,.78-5.07,5.87-26.3,16.8-50.43,31.51-72.9,2.71-4.14,5.95-7.91,9.58-11.3,2.51-2.35,5.2-4.47,8.48-5.67,4.51-1.65,7.72-.48,10.26,3.5,.81,1.28,.73,3.14,2.15,4.19,1.3-1.43,1.1-2.83,1.31-4.11,1.11-6.78,2.78-13.4,5.45-19.74,9.14-21.72,25.76-31.3,49.04-28.26,8.3,1.08,9.57,2.9,7.75,11.14-.7,3.18-1.94,6.17-3.51,9.01-2.22,3.99-4.52,7.93-6.8,11.88-2.96,5.1-5.84,10.24-7.97,15.77-4.52,11.71-4.53,23.34,.31,35.01,2.58,6.21,6.32,11.7,10.04,17.21,5.33,7.9,10.37,15.97,13.86,24.88,6.13,15.67,3.55,25.72-9.46,36.42-4.1,3.37-8.54,6.36-12.95,9.34-1.99,1.35-2.99,2.57-1.97,5.11,1.28,3.21,1.58,6.69,1.44,10.11-.83,20.79-7.21,39.66-20.8,55.57-14.27,16.71-32.68,20.76-53.1,12.49-8.55-3.47-16.14-8.49-23.36-14.13-1.05-.82-1.98-2.06-3.96-2.1,4.51,11.84,10.51,22.17,17.96,31.63,21.34,27.12,48.63,44.45,82.97,50.05,22.46,3.67,44.4,.92,65.94-5.67,26.68-8.15,50.6-21.73,73.11-37.96,.77-.55,1.56-1.09,1.81-2.36-7.51-3.92-15.14-7.76-22.65-11.85-10.21-5.56-19.99-11.78-28.62-19.68-18.18-16.66-23.7-36.97-17.57-60.65,3.56-13.74,9.73-26.37,16.8-38.59,14.37-24.81,34.98-42.27,61.8-52.49,16.1-6.13,32.78-9.79,49.77-12.19,23.79-3.36,47.76-4.72,71.73-4.26,10.92,.21,20.12-2.59,28.69-8.76,3.85-2.78,7.84-5.42,11.47-8.48,12.64-10.64,22.09-23.56,27.06-39.45,3.24-10.33,4.39-20.84,1.51-31.47-.94-3.46-2.36-6.71-5.78-9.29-.96,2.15-1.73,3.83-2.45,5.52-2.31,5.44-4.99,10.68-8.34,15.56-12.4,18.11-30.12,25.3-51.59,20.45-20.01-4.52-37.17-14.58-51.56-28.97-12.6-12.6-17.47-28.22-15.32-45.95,1.38-11.34,5.5-21.7,11.41-31.39,10.53-17.26,25-30.57,41.99-41.21,25.51-15.97,53.5-24.46,83.44-26.55,48.85-3.41,94.57,6.94,136.77,31.91,39.77,23.54,70.27,56.27,92.78,96.32,39.67,70.59,51.16,146.28,37.73,225.62-13.97,82.54-53.7,151.24-115.55,207.31-35.29,31.99-75.35,56.59-118.81,75.83-43.7,19.35-89.29,32.51-136.21,41.25-14.96,2.79-29.99,5.19-45.11,6.96-3.82,.45-3.86,.27-4.02-3.4-.08-1.71-.06-3.42-.06-5.14-.18-38.43-.39-76.86-.52-115.29-.21-62.21-.37-124.43-.55-186.64,0-1.8,0-3.6,0-5.93-2.36,1.66-2.46,3.7-3.09,5.38-38.04,102.3-76.05,204.61-114.06,306.92-33.25,89.48-66.5,178.95-99.74,268.43-.73,1.95-1.41,3.94-1.91,5.96-.43,1.74,.14,2.91,2.27,2.92,3.23,.02,6.47,.25,9.7,.28,72.17,.62,144.22-1.76,216.1-8.54,37.14-3.5,74.12-8.2,110.79-15.11,28.44-5.36,56.55-12,84.04-21.15,28.81-9.59,55.86-23.11,82.79-36.91,19.5-9.99,38.33-21.1,55.8-34.4,19.94-15.19,36.59-33.21,48.19-55.61,.41-.8,.69-1.76,2.44-2.43,9.72,16.86,13.48,35.62,16.58,54.5,3.14,19.05,4.63,38.25,2.21,58.86,3.08-2.4,5.05-3.82,6.89-5.39,8.61-7.36,15.68-16.04,21.72-25.57,11.82-18.66,19.56-39.05,25.42-60.22,9.43-34.1,13.86-68.94,15.25-104.2,1.12-28.37,.76-56.68-4.44-84.73-.65-3.53-.4-3.96,3.26-4.14,10.72-.51,20.24,2.71,28.55,9.53,7.49,6.14,12.97,13.87,17.48,22.32,6.21,11.64,10.56,24.01,13.88,36.74,7.86,30.15,11.26,60.91,12.73,91.95,.29,6.17,.63,12.34,.95,18.5,4.8-4.44,7.79-9.64,10.63-14.92,10.45-19.4,17.23-40.15,22.3-61.5,5.67-23.92,9.03-48.19,10.87-72.7,3.45-46.11,1.69-92-5.66-137.65-1.06-6.57-2.42-13.09-3.55-19.65-.55-3.17,.12-3.74,3.3-3.03,1.29,.29,2.57,.72,3.8,1.22,6.06,2.43,11.45,5.99,16.58,9.97,13.5,10.46,24.92,22.91,34.79,36.78,24.57,34.49,38.35,72.41,36.09,115.31-.23,4.28-.7,8.55-1.15,13.93,4.69-3.86,7.14-8.05,9.31-12.4,5.51-11.01,8.28-22.85,10.21-34.91,4.14-25.88,4.11-51.94,2.88-78-1.96-41.51-7.8-82.52-16.77-123.09-7.94-35.91-17.98-71.15-33.62-104.6-.49-1.04-1.05-2.05-.31-3.22,1.62-.7,3.36-.5,5.04-.45,3.61,.13,7.25,.14,10.82,.63,29.83,4.1,54.79,17.67,75.37,39.38,19.59,20.66,31.45,45.53,38.78,72.75,6.57,24.41,9.1,49.33,9.13,74.54,0,3.65,0,7.3,0,10.95,1.35-1.11,1.84-2.3,2.21-3.52,3.38-11.1,6.26-22.34,8.68-33.68,8.79-41.08,11.2-82.47,5.73-124.21-6.06-46.26-21.43-89.34-44.62-129.7-25.27-43.97-57.99-81.85-95.38-115.87-24.96-22.71-51.68-43.17-79.63-62.05-1.58-1.07-3.66-1.75-4.54-4.35,62.59-17.42,117.55-5.26,164.65,40.25ZM404.37,444.81c.29,.2,.58,.4,.86,.6,1.34-1.03,2.73-2,4-3.12,6.88-6.07,12.84-13,18.27-20.34,25.98-35.12,48.14-72.56,66.36-112.23,14.57-31.73,20.24-65.16,16.74-100.06-2.52-25.12-8.67-49.37-17.02-73.11-.21-.58-.21-1.51-1.49-1.25-.06,.89-.15,1.83-.18,2.76-1.44,38.75-8.24,76.67-17.81,114.16-15.03,58.91-35.86,115.78-60.23,171.41-3.1,7.09-6.33,14.12-9.49,21.18Z"/><path class="cls-1" d="M1429.1,567.59c-47.09-45.51-102.06-57.68-164.65-40.25,.87,2.6,2.95,3.28,4.54,4.35,27.95,18.88,54.67,39.34,79.63,62.05,37.38,34.02,70.1,71.89,95.38,115.87,23.2,40.36,38.56,83.44,44.62,129.7,5.47,41.74,3.06,83.13-5.73,124.21-2.43,11.35-5.3,22.58-8.68,33.68-.37,1.22-.87,2.41-2.21,3.52,0-3.65,0-7.3,0-10.95-.03-25.22-2.56-50.13-9.13-74.54-7.33-27.22-19.18-52.1-38.78-72.75-20.59-21.71-45.55-35.28-75.37-39.38-3.57-.49-7.21-.51-10.82-.63-1.69-.06-3.42-.25-5.04,.45-.73,1.17-.17,2.18,.31,3.22,15.63,33.44,25.68,68.69,33.62,104.6,8.97,40.56,14.81,81.58,16.77,123.09,1.23,26.06,1.26,52.12-2.88,78-1.93,12.06-4.7,23.9-10.21,34.91-2.18,4.35-4.62,8.55-9.31,12.4,.45-5.38,.92-9.65,1.15-13.93,2.26-42.9-11.53-80.81-36.09-115.31-9.87-13.86-21.29-26.32-34.79-36.78-5.13-3.98-10.52-7.54-16.58-9.97-1.23-.49-2.51-.93-3.8-1.22-3.18-.71-3.84-.14-3.3,3.03,1.13,6.56,2.49,13.08,3.55,19.65,7.35,45.66,9.11,91.54,5.66,137.65-1.83,24.51-5.19,48.78-10.87,72.7-5.06,21.35-11.85,42.1-22.3,61.5-2.85,5.28-5.84,10.49-10.63,14.92-.32-6.17-.66-12.34-.95-18.5-1.47-31.03-4.87-61.8-12.73-91.95-3.32-12.73-7.66-25.1-13.88-36.74-4.51-8.45-10-16.18-17.48-22.32-8.3-6.81-17.83-10.03-28.55-9.53-3.66,.17-3.91,.61-3.26,4.14,5.2,28.05,5.56,56.36,4.44,84.73-1.39,35.26-5.83,70.11-15.25,104.2-5.85,21.17-13.6,41.56-25.42,60.22-6.04,9.53-13.11,18.21-21.72,25.57-1.84,1.57-3.82,2.99-6.89,5.39,2.42-20.61,.93-39.81-2.21-58.86-3.11-18.88-6.87-37.63-16.58-54.5-1.75,.68-2.03,1.63-2.44,2.43-11.6,22.4-28.24,40.42-48.19,55.61-17.47,13.31-36.3,24.41-55.8,34.4-26.92,13.8-53.98,27.32-82.79,36.91-27.49,9.15-55.61,15.79-84.04,21.15-36.67,6.91-73.65,11.61-110.79,15.11-71.88,6.77-143.93,9.16-216.1,8.54-3.23-.03-6.47-.26-9.7-.28-2.13-.01-2.69-1.18-2.27-2.92,.5-2.02,1.18-4.01,1.91-5.96,33.24-89.48,66.49-178.95,99.74-268.43,38.01-102.31,76.02-204.62,114.06-306.92,.63-1.68,.73-3.72,3.09-5.38,0,2.33,0,4.13,0,5.93,.18,62.21,.34,124.43,.55,186.64,.13,38.43,.34,76.86,.52,115.29,0,1.71-.01,3.43,.06,5.14,.16,3.67,.21,3.85,4.02,3.4,15.12-1.77,30.14-4.17,45.11-6.96,46.92-8.74,92.51-21.91,136.21-41.25,43.45-19.24,83.52-43.84,118.81-75.83,61.86-56.08,101.58-124.77,115.55-207.31,13.43-79.34,1.94-155.04-37.73-225.62-22.51-40.05-53-72.79-92.78-96.32-42.2-24.97-87.92-35.32-136.77-31.91-29.94,2.09-57.93,10.58-83.44,26.55-16.99,10.64-31.46,23.95-41.99,41.21-5.91,9.69-10.04,20.05-11.41,31.39-2.15,17.73,2.72,33.35,15.32,45.95,14.4,14.4,31.55,24.45,51.56,28.97,21.47,4.85,39.18-2.34,51.59-20.45,3.35-4.89,6.03-10.12,8.34-15.56,.72-1.7,1.49-3.37,2.45-5.52,3.41,2.58,4.84,5.83,5.78,9.29,2.87,10.64,1.72,21.14-1.51,31.47-4.98,15.9-14.42,28.81-27.06,39.45-3.63,3.05-7.61,5.69-11.47,8.48-8.56,6.18-17.77,8.97-28.69,8.76-23.97-.46-47.94,.91-71.73,4.26-16.99,2.4-33.67,6.05-49.77,12.19-26.82,10.22-47.43,27.68-61.8,52.49-7.07,12.21-13.24,24.84-16.8,38.59-6.13,23.68-.61,43.99,17.57,60.65,8.62,7.9,18.4,14.12,28.62,19.68,7.5,4.09,15.14,7.93,22.65,11.85-.25,1.26-1.04,1.8-1.81,2.36-22.51,16.23-46.43,29.8-73.11,37.96-21.54,6.58-43.48,9.33-65.94,5.67-34.35-5.61-61.64-22.93-82.97-50.05-7.45-9.47-13.45-19.79-17.96-31.63,1.98,.04,2.91,1.27,3.96,2.1,7.22,5.64,14.81,10.66,23.36,14.13,20.41,8.28,38.83,4.23,53.1-12.49,13.59-15.91,19.97-34.78,20.8-55.57,.14-3.42-.16-6.9-1.44-10.11-1.01-2.53-.02-3.76,1.97-5.11,4.41-2.98,8.85-5.97,12.95-9.34,13.01-10.7,15.59-20.75,9.46-36.42-3.48-8.91-8.53-16.98-13.86-24.88-3.72-5.52-7.46-11-10.04-17.21-4.84-11.67-4.83-23.3-.31-35.01,2.13-5.52,5.02-10.66,7.97-15.77,2.29-3.95,4.59-7.89,6.8-11.88,1.58-2.83,2.81-5.83,3.51-9.01,1.82-8.24,.55-10.05-7.75-11.14-23.28-3.04-39.9,6.54-49.04,28.26-2.67,6.35-4.34,12.97-5.45,19.74-.21,1.28-.01,2.68-1.31,4.11-1.41-1.05-1.33-2.91-2.15-4.19-2.54-3.98-5.75-5.15-10.26-3.5-3.28,1.2-5.97,3.32-8.48,5.67-3.63,3.39-6.87,7.16-9.58,11.3-14.71,22.47-25.64,46.6-31.51,72.9-.37,1.66-.58,3.37-.78,5.07-1.01,8.66-.83,17.1,5.6,24.84-5.55,.7-10.32,.99-14.99-.95-1.58-.66-3.22-1.27-4.63-2.2-11.9-7.81-24.38-7.37-37.21-2.78-11.7,4.18-22.62,9.95-33.26,16.3-7.2,4.3-14.53,8.32-22.38,11.31-8.41,3.21-17.03,5.32-26.13,5.28-14.49-.06-26.12-5.87-35.23-16.97-4.75-5.79-8.35-12.29-10.88-19.3-7.82-21.63-10.4-43.96-8.14-66.81,1.1-11.15,5.3-21.37,10.6-31.12,9.56-17.58,22.61-32.4,37.11-46,23.59-22.11,49.97-40.39,77.97-56.42,.99-.57,1.97-1.17,2.99-1.66,2.03-.97,2.14-2.26,1.08-4.13-2.16-3.82-3.83-7.88-5.03-12.09-5.78-20.33-2.71-39.55,7.54-57.78,8.83-15.69,21.23-28.23,35.36-39.12,13.26-10.23,26.49-20.48,39.18-31.42,49.16-42.35,90.75-90.95,122.57-147.68,22.08-39.37,38.33-81.09,50.46-124.47,6.5-23.25,12.58-46.63,18.92-69.92,.99-3.62,1.98-7.28,4.07-11.19,1.82,6.15,1.88,11.89,2.41,17.52,3.67,39.35,3.5,78.65-2.19,117.83-3.92,27-10.87,53.26-19.75,79.03-1.67,4.85-3.26,9.74-4.76,14.64-.89,2.91-1.68,5.87-1.6,8.95,.1,3.91,1.55,5.71,5.37,6,7.95,.62,15.42-1.88,22.92-3.98,.96-.27,1.78-1.4,2.46-2.28,24.5-31.63,56.59-53.24,92.43-69.88,27.89-12.95,57.07-22.13,86.97-29.07,35.27-8.2,71.02-13.26,107.11-16.15,34.37-2.75,68.79-3.84,103.24-2.89,53.91,1.49,107.5,6.14,160.45,16.82,12.12,2.44,24.15,5.27,36.01,8.81,1.77,.53,3.5,1.2,5.07,2.5-4.85-.52-9.69-1.14-14.55-1.56-18.13-1.57-36.16-1.27-53.79,3.79-35.45,10.17-55.1,34.13-60.51,70.21-1.46,9.78-1.3,9.81,8.37,9.89,37.17,.31,74.16,2.79,110.83,9.09,44.34,7.62,87.05,20.22,126.58,42.25,37.25,20.76,68.26,48.24,90.51,84.97,15.49,25.56,25.35,53.12,28.68,82.9,.23,2.08,.37,4.17,.48,6.26,.03,.49-.23,1-.45,1.89Zm-1054.08,40.82c5.73,.82,11.54-.1,17.31-1.01,44.36-6.98,73.83-32.62,88.97-82.27,.64-2.09,.2-3.61-1.52-4.99-3.56-2.88-7.26-5.51-11.31-7.66-17.9-9.51-35.12-7.11-49.7,6.9-5.8,5.57-10.59,11.93-14.82,18.72-13.06,20.97-21.73,43.84-29.02,67.3-.28,.9-.52,1.82,.09,3.01Z"/><path class="cls-1" d="M404.37,444.81c3.17-7.06,6.39-14.1,9.49-21.18,24.37-55.63,45.2-112.5,60.23-171.41,9.56-37.49,16.36-75.41,17.81-114.16,.03-.94,.12-1.87,.18-2.76,1.28-.26,1.29,.66,1.49,1.25,8.35,23.75,14.5,47.99,17.02,73.11,3.5,34.9-2.17,68.34-16.74,100.06-18.22,39.67-40.38,77.11-66.36,112.23-5.43,7.34-11.39,14.27-18.27,20.34-1.26,1.12-2.66,2.08-4,3.12-.29-.2-.58-.4-.86-.6Z"/><path class="cls-2" d="M375.02,608.42c-.61-1.19-.37-2.11-.09-3.01,7.3-23.46,15.96-46.33,29.02-67.3,4.23-6.79,9.02-13.15,14.82-18.72,14.59-14.01,31.8-16.41,49.7-6.9,4.05,2.15,7.75,4.78,11.31,7.66,1.71,1.39,2.16,2.9,1.52,4.99-15.14,49.66-44.61,75.3-88.97,82.27-5.77,.91-11.58,1.83-17.31,1.01Z"/></g></g></svg>